HIERARCHY
ROOT Hips
{
	OFFSET -0.001795 -0.223333 0.028219
	CHANNELS 6 Xposition Yposition Zposition Zrotation Yrotation Xrotation 
	JOINT LeftUpLeg
	{
		OFFSET 0.069520 -0.091406 -0.006815
		CHANNELS 3 Zrotation Yrotation Xrotation
		JOINT LeftLeg
		{
			OFFSET 0.034277 -0.375199 -0.004496
			CHANNELS 3 Zrotation Yrotation Xrotation
			JOINT LeftFoot
			{
				OFFSET -0.013596 -0.397961 -0.043693
				CHANNELS 3 Zrotation Yrotation Xrotation
				JOINT LeftToe
				{
					OFFSET 0.026358 -0.055791 0.119288
					CHANNELS 3 Zrotation Yrotation Xrotation
					End Site
					{
						OFFSET 0.000000 0.000000 0.000000
					}
				}
			}
		}
	}
	JOINT RightUpLeg
	{
		OFFSET -0.067670 -0.090522 -0.004320
		CHANNELS 3 Zrotation Yrotation Xrotation
		JOINT RightLeg
		{
			OFFSET -0.038290 -0.382569 -0.008850
			CHANNELS 3 Zrotation Yrotation Xrotation
			JOINT RightFoot
			{
				OFFSET 0.015774 -0.398415 -0.042312
				CHANNELS 3 Zrotation Yrotation Xrotation
				JOINT RightToe
				{
					OFFSET -0.025372 -0.048144 0.123348
					CHANNELS 3 Zrotation Yrotation Xrotation
					End Site
					{
						OFFSET 0.000000 0.000000 0.000000
					}
				}
			}
		}
	}
	JOINT Spine
	{
		OFFSET -0.002533 0.108963 -0.026696
		CHANNELS 3 Zrotation Yrotation Xrotation
		JOINT Spine1
		{
			OFFSET 0.005487 0.135180 0.001092
			CHANNELS 3 Zrotation Yrotation Xrotation
			JOINT Spine2
			{
				OFFSET 0.001457 0.052922 0.025425
				CHANNELS 3 Zrotation Yrotation Xrotation
				JOINT Neck
				{
					OFFSET -0.002778 0.213870 -0.042857
					CHANNELS 3 Zrotation Yrotation Xrotation
					JOINT Head
					{
						OFFSET 0.005152 0.064970 0.051349
						CHANNELS 3 Zrotation Yrotation Xrotation
						End Site
						{
							OFFSET 0.000000 0.000000 0.000000
						}
					}
				}
				JOINT LeftShoulder
				{
					OFFSET 0.078845 0.121749 -0.034090
					CHANNELS 3 Zrotation Yrotation Xrotation
					JOINT LeftArm
					{
						OFFSET 0.090977 0.030469 -0.008868
						CHANNELS 3 Zrotation Yrotation Xrotation
						JOINT LeftForeArm
						{
							OFFSET 0.259612 -0.012772 -0.027456
							CHANNELS 3 Zrotation Yrotation Xrotation
							JOINT LeftHand
							{
								OFFSET 0.249234 0.008986 -0.001171
								CHANNELS 3 Zrotation Yrotation Xrotation
								End Site
								{
									OFFSET 0.000000 0.000000 0.000000
								}
							}
						}
					}
				}
				JOINT RightShoulder
				{
					OFFSET -0.081759 0.118833 -0.038615
					CHANNELS 3 Zrotation Yrotation Xrotation
					JOINT RightArm
					{
						OFFSET -0.096012 0.032551 -0.009143
						CHANNELS 3 Zrotation Yrotation Xrotation
						JOINT RightForeArm
						{
							OFFSET -0.253742 -0.013329 -0.021401
							CHANNELS 3 Zrotation Yrotation Xrotation
							JOINT RightHand
							{
								OFFSET -0.255298 0.007772 -0.005559
								CHANNELS 3 Zrotation Yrotation Xrotation
								End Site
								{
									OFFSET 0.000000 0.000000 0.000000
								}
							}
						}
					}
				}
			}
		}
	}
}
MOTION
Frames: 14
Frame Time: 0.05000000
0.000000 0.686464 0.000000 -11.187886 -15.645879 66.770536 -7.206416 -12.832987 -127.466526 0.983084 -15.959929 90.691893 8.277428 16.472657 -11.835627 0.000000 0.000000 0.000000 -7.660426 3.664079 -28.233013 14.616089 -1.744438 23.038953 -4.853989 -16.494129 13.962562 0.000000 0.000000 0.000000 -9.801611 3.050838 -5.668461 -0.468928 0.528070 -14.380832 0.341315 3.314309 37.720800 -6.250113 5.203627 -0.327246 0.000000 0.000000 0.000000 13.928075 -33.575859 9.944907 8.529227 -37.110582 -5.400356 32.580109 -12.280994 -2.660972 0.000000 0.000000 0.000000 -19.823633 32.082729 8.257011 0.652637 51.773036 -6.164610 -41.090565 10.041945 -2.252515 0.000000 0.000000 0.000000 
0.702154 0.706295 2.088722 -19.071842 2.416335 66.471164 3.677208 -0.813957 -122.645808 -3.206628 -5.160417 86.891230 15.120197 32.111797 -6.809504 0.000000 0.000000 0.000000 -7.977393 3.002428 -23.240232 12.164774 -2.163242 22.887911 2.015441 -4.508310 21.583049 0.000000 0.000000 0.000000 -11.610203 3.724482 5.751413 1.695761 0.181741 -14.578583 -0.030796 6.270693 30.287959 -11.273847 9.620684 16.904216 0.000000 0.000000 0.000000 -3.192814 -40.042099 18.945328 23.254747 -20.380610 -5.449537 37.246603 -11.597007 -3.246139 0.000000 0.000000 0.000000 -8.797761 39.971146 15.468339 -24.380891 41.816165 -12.350808 -39.188704 3.743699 0.521834 0.000000 0.000000 0.000000 
2.253116 0.755246 3.790299 -26.633690 24.360936 61.383337 26.240772 14.267639 -106.886806 -21.849119 17.912106 67.268489 23.084581 45.064493 4.555782 0.000000 0.000000 0.000000 -7.114894 2.375002 -24.858390 12.214648 -5.224731 30.776994 -3.242071 -8.739706 -2.929964 0.000000 0.000000 0.000000 -12.788575 3.444009 22.668349 7.750776 0.166402 -24.137545 -1.588729 11.534006 26.171624 -14.475177 7.984217 23.056543 0.000000 0.000000 0.000000 -13.433388 -43.199866 21.157703 34.671171 -15.321709 -7.497247 38.558102 -12.317499 -2.392162 0.000000 0.000000 0.000000 -5.579501 41.721567 21.630431 -39.968121 34.612226 -12.671506 -33.753482 -2.386419 2.003010 0.000000 0.000000 0.000000 
4.521563 0.803492 4.912988 -39.481487 41.900492 52.290860 42.806898 13.467894 -93.727191 -31.064749 18.150655 43.699053 32.598243 58.520315 16.950091 0.000000 0.000000 0.000000 -12.767401 0.723550 -25.962889 10.863022 -15.735781 51.530463 -3.950988 -11.082205 -20.829840 0.000000 0.000000 0.000000 -17.786194 2.423049 36.885386 8.178326 0.882583 -37.585566 6.692202 16.245732 28.663475 -12.006833 3.432045 13.743485 0.000000 0.000000 0.000000 -8.080876 -45.815115 17.716149 31.970584 -15.676817 -10.998847 41.571315 -9.671344 -1.433247 0.000000 0.000000 0.000000 -18.330352 37.762393 15.114422 -37.408278 34.792623 -8.451591 -31.317022 -9.262962 3.793615 0.000000 0.000000 0.000000 
7.283683 0.850060 5.288901 -67.033489 58.223463 27.215614 66.529762 7.179143 -77.115090 -40.634340 9.444000 10.731979 44.706208 72.822875 29.163844 0.000000 0.000000 0.000000 -20.558225 -4.632857 -24.565784 -13.735366 -22.397419 90.100194 -5.380069 10.781287 -35.573134 0.000000 0.000000 0.000000 -23.879788 -1.616595 44.480522 11.611188 0.124106 -39.486995 11.613791 25.941935 26.953148 -10.473044 0.477696 7.204161 0.000000 0.000000 0.000000 2.584151 -44.278951 9.894740 25.709320 -17.926018 -15.942260 47.463284 -11.930680 -4.241001 0.000000 0.000000 0.000000 -18.830443 35.185357 15.810247 -35.340516 29.480163 -3.572316 -34.790885 -15.690102 6.963463 0.000000 0.000000 0.000000 
10.092712 0.889228 4.709589 -108.912630 57.591168 -11.376045 81.368534 -3.480883 -68.952053 -30.972532 -0.225628 -8.242333 76.241195 64.599470 82.812547 0.000000 0.000000 0.000000 -31.072090 -16.490379 -17.006528 -37.745085 -2.393222 113.584564 -4.294375 41.510062 -44.631460 0.000000 0.000000 0.000000 -30.000640 -6.329795 45.572903 12.763514 -1.512194 -36.595937 16.143510 34.261407 27.237380 -7.328108 -0.918167 0.041361 0.000000 0.000000 0.000000 4.521760 -40.247900 2.062300 23.282896 -20.688298 -17.068102 49.504093 -12.883757 -8.007369 0.000000 0.000000 0.000000 -16.922556 30.993165 16.228071 -41.323091 28.310389 -1.336516 -35.562988 -19.103771 8.254086 0.000000 0.000000 0.000000 
12.506388 0.902309 3.004640 -138.416818 43.160141 -41.286781 96.113439 -12.541074 -68.489488 -29.432300 -5.243022 -18.222618 74.634540 49.751574 102.888622 0.000000 0.000000 0.000000 -57.094506 -36.828430 9.275436 -81.359879 32.991834 84.590422 -29.220701 41.580376 -95.360384 0.000000 0.000000 0.000000 -41.697903 -14.677532 51.332720 12.802100 -2.026116 -30.563267 27.253414 47.674480 29.264491 -5.688279 -1.753761 -7.235751 0.000000 0.000000 0.000000 1.410750 -38.786920 -8.556269 23.495586 -21.514352 -16.364589 50.282770 -21.940999 -12.619319 0.000000 0.000000 0.000000 -15.624695 25.571419 18.045477 -44.041801 24.331844 1.524679 -37.589612 -26.328265 12.443996 0.000000 0.000000 0.000000 
13.977651 0.871174 0.369633 -152.374547 20.375200 -55.237767 114.920163 -18.817719 -74.645639 -32.503117 -18.396835 -36.817931 68.309644 33.322176 126.013345 0.000000 0.000000 0.000000 -140.535109 -70.209342 66.946241 -132.521427 -1.824706 16.051821 -64.341924 51.989754 -139.821844 0.000000 0.000000 0.000000 -68.968474 -24.552777 65.305110 23.379800 -6.713253 -26.711526 69.331885 64.881792 65.086002 -36.927911 -15.498806 10.890804 0.000000 0.000000 0.000000 -20.970096 -50.629839 -45.287803 25.911601 -32.580714 -7.451537 13.716252 -50.245892 9.941566 0.000000 0.000000 0.000000 12.450029 23.847981 52.944847 -63.917011 2.211489 4.299318 -42.179971 -30.469509 8.972788 0.000000 0.000000 0.000000 
14.250495 0.824905 -2.689429 -164.137092 0.110608 -62.287971 123.334278 -17.483630 -88.628907 -20.812501 -43.544131 -60.201033 35.417578 29.037387 158.566344 0.000000 0.000000 0.000000 173.683746 -51.717335 109.792925 -120.658811 -71.492040 -10.631675 -18.604509 6.636786 -131.433060 0.000000 0.000000 0.000000 -108.552068 -25.430380 93.217066 20.366926 -9.190685 -12.501415 140.158656 61.299882 124.934567 -126.326502 -28.221641 46.629954 0.000000 0.000000 0.000000 -28.984793 -49.424959 -75.934234 7.789786 -43.597381 13.829325 -16.317096 -54.199848 42.359514 0.000000 0.000000 0.000000 22.185023 15.354495 87.583894 -61.069173 -28.696210 13.161717 -42.569381 -41.671477 7.484564 0.000000 0.000000 0.000000 
13.306345 0.768095 -5.557940 -170.193209 -26.773431 -61.285539 -76.612300 12.704506 -91.725104 123.480503 59.764214 19.815001 -62.648431 6.457991 92.092541 0.000000 0.000000 0.000000 90.812685 27.722004 129.543629 10.255198 35.190834 -115.579339 11.244477 -54.140085 -128.830023 0.000000 0.000000 0.000000 122.705249 18.622131 98.037726 -27.178563 13.340608 -18.680276 -145.496449 -38.673353 129.237577 70.614523 -25.188253 68.538428 0.000000 0.000000 0.000000 -37.120620 -15.566390 127.797117 4.734913 43.155169 -12.925204 36.371589 71.042486 -5.555435 0.000000 0.000000 0.000000 10.081752 37.049360 -160.037965 29.775018 -2.390620 25.650884 69.611720 9.459870 57.136321 0.000000 0.000000 0.000000 
11.364893 0.718379 -7.874670 -171.282834 -54.857780 -54.141587 -40.676257 14.636276 -78.580116 135.957738 17.101277 39.836925 -56.116110 -13.138660 83.684797 0.000000 0.000000 0.000000 63.188441 54.959761 105.338080 103.947222 45.155887 -28.423694 17.678666 -62.265823 -120.792360 0.000000 0.000000 0.000000 107.041846 19.059440 89.800359 -21.975339 2.831453 -28.812496 -111.822343 -50.875702 90.298042 -68.909979 43.715429 68.274624 0.000000 0.000000 0.000000 -41.489513 -12.397743 120.029103 19.164616 41.967874 -1.083774 72.268144 70.021492 32.271778 0.000000 0.000000 0.000000 36.992907 50.226474 -98.980390 14.294493 35.455942 25.824105 66.795474 36.667862 90.604755 0.000000 0.000000 0.000000 
8.731532 0.663677 -9.324935 -116.376775 -84.878343 -88.625058 -14.099286 16.428811 -82.354110 155.788357 -2.959200 50.575539 -58.339250 -16.254785 92.433000 0.000000 0.000000 0.000000 -31.583254 84.700851 -15.984595 136.649525 19.258792 1.931145 54.170366 -51.541606 -157.415230 0.000000 0.000000 0.000000 151.748643 14.242782 115.880980 -49.703575 2.240001 -26.448289 -108.126138 -21.282968 -165.149465 -175.188927 30.020149 -48.446622 0.000000 0.000000 0.000000 5.911569 -28.012934 -170.377644 -41.570693 -31.254415 -5.285037 -89.264099 -37.477022 -48.500320 0.000000 0.000000 0.000000 42.465471 27.762008 -154.349283 78.878717 41.318104 46.948562 54.105944 62.418351 70.454484 0.000000 0.000000 0.000000 
5.842912 0.606642 -9.917153 -15.820088 -70.098934 -138.837539 156.119160 -13.178383 -62.830438 45.916965 7.371190 -121.998283 -40.745611 1.076202 84.719801 0.000000 0.000000 0.000000 83.588841 -7.752566 -92.260715 8.633708 -37.785347 -165.673469 6.687532 -8.199472 -178.459724 0.000000 0.000000 0.000000 -5.786036 -10.694061 -13.513033 -10.179299 20.890196 135.364410 -11.008411 6.415506 -100.515885 -3.505842 27.640419 137.530659 0.000000 0.000000 0.000000 -23.002323 -44.422910 -26.922792 65.464535 -25.035354 -32.813377 103.477272 -54.905894 -29.089653 0.000000 0.000000 0.000000 22.454478 21.545283 98.389327 9.317189 -66.302347 -50.052925 -85.929080 -56.897565 15.346696 0.000000 0.000000 0.000000 
3.233216 0.529429 -9.755774 -9.092980 -61.865900 -121.046068 86.949106 26.456680 -80.521090 -101.208367 -28.528918 -8.749210 40.915880 29.403486 95.671057 0.000000 0.000000 0.000000 -2.312457 12.729978 -91.320914 -152.576677 57.908526 17.213632 -57.398458 43.230138 -90.102791 0.000000 0.000000 0.000000 -23.416482 3.294847 -43.679576 -1.455959 -19.575089 129.727796 -21.443685 4.867900 -43.897402 0.880633 13.121348 138.837370 0.000000 0.000000 0.000000 -24.370721 -15.050267 26.514678 69.894049 24.846726 19.710285 163.579745 10.095910 -26.969405 0.000000 0.000000 0.000000 53.422259 12.155045 33.472740 -112.780261 -51.524546 50.180042 -107.781282 -55.030944 -3.040777 0.000000 0.000000 0.000000 
